<mxfile host="app.diagrams.net" modified="2023-01-31T11:19:24.939Z" agent="5.0 (Windows NT 10.0; Win64; x64) AppleWebKit/537.36 (KHTML, like Gecko) Chrome/109.0.0.0 Safari/537.36" etag="gQLWkec0d53Qs84vkl7Q" version="20.8.13" type="github">
  <diagram name="페이지-1" id="lBWLTO0uSOI4tWdGF15t">
    <mxGraphModel dx="778" dy="931" grid="1" gridSize="10" guides="1" tooltips="1" connect="1" arrows="1" fold="1" page="1" pageScale="1" pageWidth="827" pageHeight="1169" math="0" shadow="0">
      <root>
        <mxCell id="0" />
        <mxCell id="1" parent="0" />
        <mxCell id="tnbxq6PpBYepkMd_0hZx-1" value="이용자" style="shape=umlActor;verticalLabelPosition=bottom;verticalAlign=top;html=1;outlineConnect=0;" vertex="1" parent="1">
          <mxGeometry x="17" y="310" width="30" height="60" as="geometry" />
        </mxCell>
        <mxCell id="tnbxq6PpBYepkMd_0hZx-2" value="게시판 서비스" style="shape=umlFrame;whiteSpace=wrap;html=1;width=100;height=30;" vertex="1" parent="1">
          <mxGeometry x="107" y="40" width="554" height="740" as="geometry" />
        </mxCell>
        <mxCell id="tnbxq6PpBYepkMd_0hZx-15" style="rounded=0;orthogonalLoop=1;jettySize=auto;html=1;exitX=0;exitY=0.5;exitDx=0;exitDy=0;entryX=1;entryY=0.3333333333333333;entryDx=0;entryDy=0;entryPerimeter=0;endArrow=none;endFill=0;" edge="1" parent="1" source="tnbxq6PpBYepkMd_0hZx-4" target="tnbxq6PpBYepkMd_0hZx-1">
          <mxGeometry relative="1" as="geometry" />
        </mxCell>
        <mxCell id="tnbxq6PpBYepkMd_0hZx-4" value="회원가입" style="rounded=1;whiteSpace=wrap;html=1;arcSize=40;fontColor=#000000;fillColor=#ffffc0;strokeColor=#ff0000;" vertex="1" parent="1">
          <mxGeometry x="202" y="231" width="120" height="40" as="geometry" />
        </mxCell>
        <mxCell id="tnbxq6PpBYepkMd_0hZx-17" style="edgeStyle=none;rounded=0;orthogonalLoop=1;jettySize=auto;html=1;exitX=0;exitY=0.5;exitDx=0;exitDy=0;entryX=1;entryY=0.3333333333333333;entryDx=0;entryDy=0;entryPerimeter=0;endArrow=none;endFill=0;" edge="1" parent="1" source="tnbxq6PpBYepkMd_0hZx-6" target="tnbxq6PpBYepkMd_0hZx-1">
          <mxGeometry relative="1" as="geometry" />
        </mxCell>
        <mxCell id="tnbxq6PpBYepkMd_0hZx-23" style="edgeStyle=none;rounded=0;orthogonalLoop=1;jettySize=auto;html=1;exitX=1;exitY=0.5;exitDx=0;exitDy=0;entryX=0.5;entryY=1;entryDx=0;entryDy=0;dashed=1;endArrow=classic;endFill=1;" edge="1" parent="1" source="tnbxq6PpBYepkMd_0hZx-6" target="tnbxq6PpBYepkMd_0hZx-8">
          <mxGeometry relative="1" as="geometry" />
        </mxCell>
        <mxCell id="tnbxq6PpBYepkMd_0hZx-32" style="edgeStyle=none;rounded=0;orthogonalLoop=1;jettySize=auto;html=1;exitX=1;exitY=0.5;exitDx=0;exitDy=0;entryX=0;entryY=0.5;entryDx=0;entryDy=0;fontSize=16;endArrow=none;endFill=0;" edge="1" parent="1" source="tnbxq6PpBYepkMd_0hZx-6" target="tnbxq6PpBYepkMd_0hZx-28">
          <mxGeometry relative="1" as="geometry">
            <Array as="points">
              <mxPoint x="601" y="500" />
            </Array>
          </mxGeometry>
        </mxCell>
        <mxCell id="tnbxq6PpBYepkMd_0hZx-6" value="게시글 보기" style="rounded=1;whiteSpace=wrap;html=1;arcSize=40;fontColor=#000000;fillColor=#ffffc0;strokeColor=#ff0000;" vertex="1" parent="1">
          <mxGeometry x="200" y="630" width="120" height="40" as="geometry" />
        </mxCell>
        <mxCell id="tnbxq6PpBYepkMd_0hZx-16" style="edgeStyle=none;rounded=0;orthogonalLoop=1;jettySize=auto;html=1;exitX=0;exitY=0.5;exitDx=0;exitDy=0;entryX=1;entryY=0.3333333333333333;entryDx=0;entryDy=0;entryPerimeter=0;endArrow=none;endFill=0;" edge="1" parent="1" source="tnbxq6PpBYepkMd_0hZx-7" target="tnbxq6PpBYepkMd_0hZx-1">
          <mxGeometry relative="1" as="geometry" />
        </mxCell>
        <mxCell id="tnbxq6PpBYepkMd_0hZx-22" style="edgeStyle=none;rounded=0;orthogonalLoop=1;jettySize=auto;html=1;exitX=1;exitY=0.5;exitDx=0;exitDy=0;entryX=0.5;entryY=1;entryDx=0;entryDy=0;dashed=1;endArrow=classic;endFill=1;" edge="1" parent="1" source="tnbxq6PpBYepkMd_0hZx-7" target="tnbxq6PpBYepkMd_0hZx-8">
          <mxGeometry relative="1" as="geometry" />
        </mxCell>
        <mxCell id="tnbxq6PpBYepkMd_0hZx-31" style="edgeStyle=none;rounded=0;orthogonalLoop=1;jettySize=auto;html=1;exitX=1;exitY=0.5;exitDx=0;exitDy=0;entryX=0;entryY=0.5;entryDx=0;entryDy=0;fontSize=16;endArrow=none;endFill=0;" edge="1" parent="1" source="tnbxq6PpBYepkMd_0hZx-7" target="tnbxq6PpBYepkMd_0hZx-28">
          <mxGeometry relative="1" as="geometry">
            <Array as="points">
              <mxPoint x="541" y="340" />
            </Array>
          </mxGeometry>
        </mxCell>
        <mxCell id="tnbxq6PpBYepkMd_0hZx-7" value="게시판 보기" style="rounded=1;whiteSpace=wrap;html=1;arcSize=40;fontColor=#000000;fillColor=#ffffc0;strokeColor=#ff0000;" vertex="1" parent="1">
          <mxGeometry x="200" y="410" width="120" height="40" as="geometry" />
        </mxCell>
        <mxCell id="tnbxq6PpBYepkMd_0hZx-18" style="edgeStyle=none;rounded=0;orthogonalLoop=1;jettySize=auto;html=1;exitX=0;exitY=0.5;exitDx=0;exitDy=0;entryX=1;entryY=0.3333333333333333;entryDx=0;entryDy=0;entryPerimeter=0;endArrow=none;endFill=0;" edge="1" parent="1" source="tnbxq6PpBYepkMd_0hZx-8" target="tnbxq6PpBYepkMd_0hZx-1">
          <mxGeometry relative="1" as="geometry" />
        </mxCell>
        <mxCell id="tnbxq6PpBYepkMd_0hZx-19" value="&amp;lt;&amp;lt;include&amp;gt;&amp;gt;" style="edgeStyle=none;rounded=0;orthogonalLoop=1;jettySize=auto;html=1;exitX=1;exitY=0.5;exitDx=0;exitDy=0;entryX=0;entryY=0.5;entryDx=0;entryDy=0;endArrow=classic;endFill=1;dashed=1;" edge="1" parent="1" source="tnbxq6PpBYepkMd_0hZx-8" target="tnbxq6PpBYepkMd_0hZx-9">
          <mxGeometry relative="1" as="geometry" />
        </mxCell>
        <mxCell id="tnbxq6PpBYepkMd_0hZx-8" value="회원 로그인" style="rounded=1;whiteSpace=wrap;html=1;arcSize=40;fontColor=#000000;fillColor=#ffffc0;strokeColor=#ff0000;" vertex="1" parent="1">
          <mxGeometry x="301" y="93" width="120" height="40" as="geometry" />
        </mxCell>
        <mxCell id="tnbxq6PpBYepkMd_0hZx-30" style="edgeStyle=none;rounded=0;orthogonalLoop=1;jettySize=auto;html=1;exitX=1;exitY=0.5;exitDx=0;exitDy=0;entryX=0;entryY=0.5;entryDx=0;entryDy=0;endArrow=none;endFill=0;" edge="1" parent="1" source="tnbxq6PpBYepkMd_0hZx-9" target="tnbxq6PpBYepkMd_0hZx-28">
          <mxGeometry relative="1" as="geometry" />
        </mxCell>
        <mxCell id="tnbxq6PpBYepkMd_0hZx-9" value="인증" style="rounded=1;whiteSpace=wrap;html=1;arcSize=40;fontColor=#000000;fillColor=#ffffc0;strokeColor=#ff0000;" vertex="1" parent="1">
          <mxGeometry x="525" y="93" width="120" height="40" as="geometry" />
        </mxCell>
        <mxCell id="tnbxq6PpBYepkMd_0hZx-21" value="&amp;lt;&amp;lt;extend&amp;gt;&amp;gt;" style="edgeStyle=none;rounded=0;orthogonalLoop=1;jettySize=auto;html=1;exitX=0;exitY=0.5;exitDx=0;exitDy=0;entryX=1;entryY=0.5;entryDx=0;entryDy=0;dashed=1;endArrow=classic;endFill=1;" edge="1" parent="1" source="tnbxq6PpBYepkMd_0hZx-10" target="tnbxq6PpBYepkMd_0hZx-8">
          <mxGeometry relative="1" as="geometry" />
        </mxCell>
        <mxCell id="tnbxq6PpBYepkMd_0hZx-10" value="로그인 실패" style="rounded=1;whiteSpace=wrap;html=1;arcSize=40;fontColor=#000000;fillColor=#ffffc0;strokeColor=#ff0000;" vertex="1" parent="1">
          <mxGeometry x="524" y="190" width="120" height="40" as="geometry" />
        </mxCell>
        <mxCell id="tnbxq6PpBYepkMd_0hZx-24" style="edgeStyle=none;rounded=0;orthogonalLoop=1;jettySize=auto;html=1;exitX=0;exitY=0.5;exitDx=0;exitDy=0;entryX=1;entryY=0.5;entryDx=0;entryDy=0;dashed=1;endArrow=classic;endFill=1;" edge="1" parent="1" source="tnbxq6PpBYepkMd_0hZx-11" target="tnbxq6PpBYepkMd_0hZx-7">
          <mxGeometry relative="1" as="geometry" />
        </mxCell>
        <mxCell id="tnbxq6PpBYepkMd_0hZx-11" value="게시판 정렬" style="rounded=1;whiteSpace=wrap;html=1;arcSize=40;fontColor=#000000;fillColor=#ffffc0;strokeColor=#ff0000;" vertex="1" parent="1">
          <mxGeometry x="477" y="373" width="120" height="40" as="geometry" />
        </mxCell>
        <mxCell id="tnbxq6PpBYepkMd_0hZx-25" style="edgeStyle=none;rounded=0;orthogonalLoop=1;jettySize=auto;html=1;exitX=0;exitY=0.5;exitDx=0;exitDy=0;entryX=1;entryY=0.5;entryDx=0;entryDy=0;dashed=1;endArrow=classic;endFill=1;" edge="1" parent="1" source="tnbxq6PpBYepkMd_0hZx-12" target="tnbxq6PpBYepkMd_0hZx-7">
          <mxGeometry relative="1" as="geometry" />
        </mxCell>
        <mxCell id="tnbxq6PpBYepkMd_0hZx-12" value="게시판 검색" style="rounded=1;whiteSpace=wrap;html=1;arcSize=40;fontColor=#000000;fillColor=#ffffc0;strokeColor=#ff0000;" vertex="1" parent="1">
          <mxGeometry x="477" y="457" width="120" height="40" as="geometry" />
        </mxCell>
        <mxCell id="tnbxq6PpBYepkMd_0hZx-26" style="edgeStyle=none;rounded=0;orthogonalLoop=1;jettySize=auto;html=1;exitX=0;exitY=0.5;exitDx=0;exitDy=0;entryX=1;entryY=0.5;entryDx=0;entryDy=0;dashed=1;endArrow=classic;endFill=1;" edge="1" parent="1" source="tnbxq6PpBYepkMd_0hZx-13" target="tnbxq6PpBYepkMd_0hZx-6">
          <mxGeometry relative="1" as="geometry" />
        </mxCell>
        <mxCell id="tnbxq6PpBYepkMd_0hZx-33" style="edgeStyle=none;rounded=0;orthogonalLoop=1;jettySize=auto;html=1;exitX=1;exitY=0.5;exitDx=0;exitDy=0;entryX=0;entryY=0.5;entryDx=0;entryDy=0;fontSize=16;endArrow=none;endFill=0;" edge="1" parent="1" source="tnbxq6PpBYepkMd_0hZx-13" target="tnbxq6PpBYepkMd_0hZx-28">
          <mxGeometry relative="1" as="geometry" />
        </mxCell>
        <mxCell id="tnbxq6PpBYepkMd_0hZx-13" value="게시글&lt;br&gt;쓰기, 수정, 삭제" style="rounded=1;whiteSpace=wrap;html=1;arcSize=40;fontColor=#000000;fillColor=#ffffc0;strokeColor=#ff0000;" vertex="1" parent="1">
          <mxGeometry x="477" y="596" width="120" height="40" as="geometry" />
        </mxCell>
        <mxCell id="tnbxq6PpBYepkMd_0hZx-27" style="edgeStyle=none;rounded=0;orthogonalLoop=1;jettySize=auto;html=1;exitX=0;exitY=0.5;exitDx=0;exitDy=0;entryX=1;entryY=0.5;entryDx=0;entryDy=0;dashed=1;endArrow=classic;endFill=1;" edge="1" parent="1" source="tnbxq6PpBYepkMd_0hZx-14" target="tnbxq6PpBYepkMd_0hZx-6">
          <mxGeometry relative="1" as="geometry" />
        </mxCell>
        <mxCell id="tnbxq6PpBYepkMd_0hZx-34" style="edgeStyle=none;rounded=0;orthogonalLoop=1;jettySize=auto;html=1;exitX=1;exitY=0.5;exitDx=0;exitDy=0;entryX=0;entryY=0.5;entryDx=0;entryDy=0;fontSize=16;endArrow=none;endFill=0;" edge="1" parent="1" source="tnbxq6PpBYepkMd_0hZx-14" target="tnbxq6PpBYepkMd_0hZx-28">
          <mxGeometry relative="1" as="geometry" />
        </mxCell>
        <mxCell id="tnbxq6PpBYepkMd_0hZx-14" value="댓글&lt;br&gt;보기, 쓰기, 수정, 삭제" style="rounded=1;whiteSpace=wrap;html=1;arcSize=40;fontColor=#000000;fillColor=#ffffc0;strokeColor=#ff0000;" vertex="1" parent="1">
          <mxGeometry x="477" y="676" width="120" height="40" as="geometry" />
        </mxCell>
        <mxCell id="tnbxq6PpBYepkMd_0hZx-28" value="&lt;b style=&quot;font-size: 16px;&quot;&gt;DB&lt;/b&gt;" style="html=1;dropTarget=0;fontSize=16;" vertex="1" parent="1">
          <mxGeometry x="782" y="229" width="78" height="121" as="geometry" />
        </mxCell>
      </root>
    </mxGraphModel>
  </diagram>
</mxfile>
